HIERARCHY
ROOT Hips
{
	OFFSET 0.000000 0.000000 0.000000 
	CHANNELS 6 Xposition Yposition Zposition Zrotation Xrotation Yrotation
	JOINT Chest
	{
		OFFSET 0.000000 20.000000 0.000000 
		CHANNELS 3 Zrotation Xrotation Yrotation
		JOINT LeftShoulder
		{
			OFFSET 20.000000 20.000000 0.000000 
			CHANNELS 3 Zrotation Xrotation Yrotation
			JOINT LeftElbow
			{
				OFFSET 25.000000 0.000000 0.000000 
				CHANNELS 3 Zrotation Xrotation Yrotation
				JOINT LeftWrist
				{
					OFFSET 22.000000 0.000000 0.000000 
					CHANNELS 3 Zrotation Xrotation Yrotation
					End Site
					{
						OFFSET 15.000000 0.000000 0.000000 
					}
				}
			}
		}
		JOINT RightShoulder
		{
			OFFSET -20.000000 20.000000 0.000000 
			CHANNELS 3 Zrotation Xrotation Yrotation
			JOINT RightElbow
			{
				OFFSET -25.000000 0.000000 0.000000 
				CHANNELS 3 Zrotation Xrotation Yrotation
				JOINT RightWrist
				{
					OFFSET -22.000000 0.000000 0.000000 
					CHANNELS 3 Zrotation Xrotation Yrotation
					End Site
					{
						OFFSET -15.000000 0.000000 0.000000 
					}
				}
			}
		}
		JOINT Neck
		{
			OFFSET 0.000000 20.099993 0.000000 
			CHANNELS 3 Zrotation Xrotation Yrotation
			End Site
			{
				OFFSET -0.200000 15.899995 10.500000 
			}
		}
	}
	JOINT LeftHip
	{
		OFFSET 10.000000 0.000000 0.000000 
		CHANNELS 3 Zrotation Xrotation Yrotation
		JOINT LeftKnee
		{
			OFFSET 0.000000 -50.000000 0.000000 
			CHANNELS 3 Zrotation Xrotation Yrotation
			JOINT LeftAnkle
			{
				OFFSET 0.000000 -40.000000 0.000000 
				CHANNELS 3 Zrotation Xrotation Yrotation
				End Site
				{
					OFFSET 0.000000 0.000000 20.000000 
				}
			}
		}
	}
	JOINT RightHip
	{
		OFFSET -10.000000 0.000000 0.000000 
		CHANNELS 3 Zrotation Xrotation Yrotation
		JOINT RightKnee
		{
			OFFSET 0.000000 -50.000000 0.000000 
			CHANNELS 3 Zrotation Xrotation Yrotation
			JOINT RightAnkle
			{
				OFFSET 0.000000 -40.000000 0.000000 
				CHANNELS 3 Zrotation Xrotation Yrotation
				End Site
				{
					OFFSET 0.000000 0.000000 20.000000 
				}
			}
		}
	}
}
MOTION
Frames: 23
Frame Time: 0.033333
-54.189999 47.258202 215.565994 -38.889999 31.750000 67.470001 8.699999 21.250000 -11.039999 47.320000 -48.680000 -17.750000 7.840000 -50.209999 -4.080000 10.610000 -19.170000 51.900002 -14.700000 -56.869999 42.680000 -11.880000 -49.689999 4.150000 -24.400000 -3.820000 12.740000 17.420000 -3.980000 11.480000 -179.029999 -38.970001 -173.720001 -175.559998 79.830002 175.929993 1.970000 -4.690000 -44.720001 -63.869999 -68.180000 -92.849998 176.589996 35.160000 -178.770004 0.270000 -28.790001 8.030000 
-54.256901 47.292099 215.600998 -38.970001 31.740000 67.669998 8.799999 21.430000 -10.980000 45.830002 -48.200001 -17.240000 7.870000 -50.090000 -4.030000 11.090000 -18.350000 53.560001 -14.270000 -57.889999 46.169998 -12.140000 -46.500000 3.980000 -21.690001 -2.990000 7.480000 17.400000 -4.540000 11.490000 -178.979996 -38.990002 -173.600006 -175.580002 79.959999 175.910004 1.880000 -4.700000 -44.759998 -64.000000 -68.139999 -93.029999 176.589996 35.139999 -178.770004 0.270000 -28.900000 7.990000 
-54.325401 47.329800 215.636505 -39.110001 31.730000 67.879997 8.929999 21.630001 -10.860000 44.150002 -47.820000 -16.389999 7.900000 -50.290001 -3.950000 10.520000 -17.840000 53.470001 -13.970000 -58.439999 49.110001 -12.280000 -44.619999 3.900000 -19.309999 -2.770000 1.400000 17.360001 -5.160000 11.450000 -178.940002 -38.980000 -173.500000 -175.600006 80.099998 175.899994 1.780000 -4.740000 -44.820000 -64.279999 -68.129997 -93.430000 176.589996 35.119999 -178.779999 0.270000 -28.940001 7.900000 
-54.387402 47.370899 215.669907 -39.299999 31.730000 68.110001 9.049999 21.770000 -10.660000 42.730000 -47.650002 -15.600000 7.950000 -50.480000 -3.840000 9.710000 -17.280001 51.740002 -13.540000 -58.590000 51.250000 -12.340000 -43.759998 3.860000 -17.600000 -2.930000 -4.910000 17.320000 -5.720000 11.350000 -178.899994 -38.919998 -173.399994 -175.649994 80.230003 175.910004 1.680000 -4.790000 -44.889999 -64.660004 -68.150002 -93.910004 176.589996 35.130001 -178.770004 0.270000 -28.950001 7.830000 
-54.436001 47.409302 215.699005 -39.549999 31.730000 68.360001 9.190000 21.849998 -10.360000 41.930000 -47.720001 -15.270000 8.050000 -50.470001 -3.640000 9.470000 -16.430000 48.580002 -12.880000 -58.430000 52.549999 -12.360000 -43.450001 3.850000 -16.610001 -3.180000 -10.430000 17.330000 -6.050000 11.120001 -178.880005 -38.790001 -173.300003 -175.679993 80.339996 175.929993 1.640000 -4.830000 -45.009998 -65.129997 -68.190002 -94.459999 176.589996 35.150002 -178.770004 0.270000 -28.879999 7.950000 
-54.466999 47.433498 215.723297 -39.869999 31.730000 68.610001 9.309999 21.650002 -9.889999 41.730000 -47.980000 -15.410000 8.200000 -50.139999 -3.380000 9.830000 -15.290000 43.970001 -12.150000 -58.130001 53.130001 -12.370000 -43.389999 3.850000 -16.139999 -3.280000 -14.120000 17.419998 -5.950000 10.740000 -178.889999 -38.570000 -173.220001 -175.679993 80.410004 175.949997 1.710000 -4.820000 -45.150002 -65.650002 -68.260002 -95.040001 176.589996 35.180000 -178.770004 0.270000 -28.840000 8.150000 
-54.480900 47.435299 215.744507 -40.259998 31.740000 68.860001 9.420000 21.260000 -9.340000 41.820000 -48.259998 -15.620000 8.350000 -49.869999 -3.100000 10.080000 -13.640000 37.540001 -11.620000 -57.810001 53.209999 -12.370000 -43.380001 3.850000 -15.880000 -3.060000 -15.460000 17.560001 -5.490000 10.330000 -178.949997 -38.240002 -173.149994 -175.630005 80.430000 175.919998 1.930000 -4.700000 -45.310001 -66.190002 -68.349998 -95.650002 176.589996 35.230000 -178.770004 0.270000 -28.840000 8.370000 
-54.482601 47.417400 215.764008 -40.680000 31.740000 69.089996 9.509999 20.670000 -8.820000 41.860001 -48.419998 -15.460000 8.470000 -50.110001 -2.880000 9.540000 -10.880000 28.850000 -11.480000 -57.590000 53.150002 -12.370000 -43.410000 3.850000 -15.750000 -2.440000 -15.050000 17.709999 -4.810000 9.930000 -179.070007 -37.849998 -173.119995 -175.539993 80.410004 175.839996 2.210000 -4.580000 -45.480000 -66.730003 -68.459999 -96.269997 176.589996 35.259998 -178.770004 0.270000 -28.879999 8.560000 
-54.479000 47.392300 215.780502 -41.090000 31.750000 69.300003 9.589999 20.130001 -8.349999 41.770000 -48.410000 -14.760000 8.550000 -51.189999 -2.720000 8.130000 -6.430000 17.950001 -11.690000 -57.540001 53.259998 -12.370000 -43.330002 3.840000 -15.840000 -1.490000 -14.270000 17.830000 -4.140000 9.610001 -179.210007 -37.450001 -173.110001 -175.449997 80.370003 175.759995 2.490000 -4.470000 -45.639999 -67.230003 -68.589996 -96.849998 176.589996 35.299999 -178.770004 0.270000 -28.940001 8.740000 
-54.474300 47.371201 215.790497 -41.430000 31.780001 69.449997 9.650000 19.570000 -7.940000 41.619999 -48.240002 -13.680000 8.600000 -53.070000 -2.610000 6.420000 -0.450000 5.950000 -12.030000 -57.650002 53.709999 -12.390000 -43.049999 3.830000 -16.160000 -0.420000 -14.230000 17.930000 -3.530000 9.360000 -179.369995 -37.130001 -173.119995 -175.350006 80.330002 175.669998 2.720000 -4.410000 -45.779999 -67.669998 -68.709999 -97.370003 176.589996 35.320000 -178.770004 0.270000 -28.990000 8.910000 
-54.468102 47.355999 215.790497 -41.639999 31.830000 69.540001 9.619999 19.250000 -7.740000 41.619999 -48.009998 -12.440000 8.630000 -55.290001 -2.530000 4.710000 5.990000 -5.360000 -12.220000 -57.860001 54.450001 -12.420000 -42.580002 3.810000 -16.610001 0.490000 -14.990000 18.040001 -2.950000 9.160000 -179.520004 -36.919998 -173.119995 -175.259995 80.300003 175.580002 2.870000 -4.390000 -45.869999 -68.029999 -68.800003 -97.769997 176.589996 35.330002 -178.770004 0.270000 -29.020000 9.070000 
-54.457699 47.341000 215.780502 -41.650002 31.889999 69.570000 9.549999 19.110001 -7.700000 41.959999 -47.820000 -11.150000 8.670000 -57.450001 -2.450000 2.660000 11.780000 -14.310000 -12.150000 -58.099998 55.299999 -12.460000 -42.070000 3.790000 -17.059999 1.070000 -15.750000 18.119999 -2.490000 9.100000 -179.619995 -36.889999 -173.080002 -175.190002 80.290001 175.520004 2.950000 -4.400000 -45.910000 -68.209999 -68.820000 -97.949997 176.589996 35.330002 -178.770004 0.270000 -29.020000 9.110000 
-54.442799 47.321701 215.761597 -41.480000 31.930000 69.540001 9.459999 19.330000 -7.940000 42.740002 -47.669998 -9.630000 8.740000 -59.340000 -2.340000 0.040000 16.350000 -20.150000 -11.790000 -58.419998 56.230000 -12.480000 -41.709999 3.780000 -17.500000 1.300000 -15.820000 18.170000 -2.200000 9.200000 -179.690002 -37.020000 -172.970001 -175.130005 80.269997 175.460007 3.000000 -4.430000 -45.939999 -68.129997 -68.720001 -97.820000 176.589996 35.310001 -178.770004 0.270000 -28.969999 8.990000 
-54.424702 47.298801 215.734604 -41.110001 31.910000 69.379997 9.440000 19.869999 -8.379999 43.990002 -47.580002 -7.810000 8.980000 -61.110001 -2.080000 -2.670000 19.510000 -23.309999 -11.270000 -58.889999 57.270000 -12.490000 -41.580002 3.780000 -17.959999 1.320000 -14.810000 18.020000 -2.290000 9.500000 -179.770004 -37.330002 -172.880005 -175.089996 80.250000 175.429993 3.070000 -4.460000 -45.950001 -67.709999 -68.570000 -97.389999 176.589996 35.290001 -178.770004 0.270000 -28.910000 8.640000 
-54.403599 47.275200 215.701096 -40.630001 31.830000 69.110001 9.500000 20.670000 -8.929999 45.570000 -47.470001 -5.690000 9.570000 -62.910000 -1.510000 -4.740000 21.139999 -24.930000 -10.640000 -59.570000 58.480000 -12.480000 -41.709999 3.780000 -18.440001 1.340000 -12.660000 17.709999 -2.650000 9.910000 -179.889999 -37.750000 -172.839996 -175.070007 80.209999 175.429993 3.150000 -4.520000 -45.980000 -67.070000 -68.440002 -96.790001 176.589996 35.270000 -178.770004 0.270000 -28.830000 8.090000 
-54.377201 47.252602 215.665405 -40.150002 31.740000 68.809998 9.599999 21.459999 -9.459999 47.270000 -47.389999 -3.640000 10.620000 -64.849998 -0.510000 -5.590000 21.190001 -26.309999 -10.080000 -60.369999 59.700001 -12.460000 -42.020000 3.790000 -18.820000 1.410000 -9.410000 17.330000 -3.140000 10.340000 179.979996 -38.189999 -172.860001 -175.080002 80.169998 175.470001 3.170000 -4.640000 -46.040001 -66.410004 -68.320000 -96.199997 176.589996 35.250000 -178.770004 0.270000 -28.750000 7.400000 
-54.343899 47.231899 215.631500 -39.810001 31.680000 68.540001 9.690000 22.040001 -9.840000 48.840000 -47.389999 -1.980000 12.140000 -66.580002 0.920000 -5.150000 19.799999 -28.490000 -9.630000 -61.139999 60.680000 -12.440000 -42.360001 3.810000 -18.920000 1.410000 -5.410000 17.070000 -3.460000 10.610001 179.850006 -38.529999 -172.910004 -175.220001 80.129997 175.639999 3.080000 -4.830000 -46.119999 -65.930000 -68.260002 -95.849998 176.589996 35.230000 -178.770004 0.270000 -28.690001 6.690000 
-54.304001 47.215199 215.597504 -39.619999 31.660000 68.370003 9.759999 22.330000 -10.020000 50.160000 -47.590000 -0.980000 13.730000 -67.680000 2.420000 -3.670000 17.270000 -31.969999 -9.440000 -61.770000 61.200001 -12.420000 -42.580002 3.810000 -18.639999 1.080000 -1.660000 16.900002 -3.640000 10.740000 179.779999 -38.730000 -172.949997 -175.440002 80.089996 175.910004 2.930000 -5.060000 -46.180000 -65.709999 -68.230003 -95.809998 176.589996 35.230000 -178.770004 0.270000 -28.660000 6.010000 
-54.255299 47.203899 215.557999 -39.549999 31.690001 68.269997 9.789999 22.400000 -10.059999 51.220001 -48.009998 -0.670000 14.920000 -67.629997 3.550000 -1.670000 14.020000 -36.250000 -9.490000 -62.250000 61.189999 -12.430000 -42.450001 3.810000 -17.990000 0.170000 0.620000 16.880001 -3.620000 10.760000 179.770004 -38.799999 -172.919998 -175.750000 80.070000 176.250000 2.780000 -5.260000 -46.160000 -65.739998 -68.209999 -95.970001 176.589996 35.240002 -178.770004 0.270000 -28.660000 5.450000 
-54.191299 47.196301 215.513901 -39.500000 31.750000 68.190002 9.779999 22.369999 -10.000000 52.049999 -48.660000 -1.050000 15.270000 -66.099998 3.870000 0.470000 10.280000 -39.919998 -9.820000 -62.529999 60.790001 -12.470000 -41.849998 3.790000 -17.230000 -1.390000 0.460000 16.939999 -3.590000 10.720000 179.809998 -38.830002 -172.860001 -176.029999 80.019997 176.509995 2.700000 -5.380000 -46.020000 -65.830002 -68.180000 -96.099998 176.589996 35.250000 -178.770004 0.270000 -28.680000 5.060000 
-54.107101 47.189301 215.475998 -39.450001 31.820000 68.099998 9.740000 22.330000 -9.879999 52.680000 -49.450001 -2.150000 14.970000 -62.869999 3.620000 2.510000 5.970000 -40.980000 -10.310000 -62.509998 60.110001 -12.540000 -40.759998 3.750000 -16.719999 -3.370000 -2.220000 17.070000 -3.610000 10.660000 179.850006 -38.820000 -172.820007 -176.210007 79.930000 176.619995 2.730000 -5.410000 -45.770000 -65.970001 -68.169998 -96.160004 176.589996 35.250000 -178.770004 0.270000 -28.680000 4.850000 
-54.007599 47.183300 215.455704 -39.430000 31.889999 68.000000 9.660000 22.250000 -9.719999 53.049999 -50.279999 -4.110000 14.360000 -58.150002 3.120000 4.500000 1.100000 -37.570000 -10.950000 -62.080002 59.209999 -12.630000 -39.439999 3.700000 -16.660000 -5.350000 -6.710000 17.250000 -3.790000 10.560000 179.929993 -38.750000 -172.850006 -176.160004 79.790001 176.520004 2.810000 -5.390000 -45.500000 -66.070000 -68.190002 -96.150002 176.589996 35.250000 -178.770004 0.270000 -28.670000 4.770000 
-53.906799 47.182098 215.451904 -39.459999 31.959999 67.919998 9.589999 22.139999 -9.559999 53.070000 -51.000000 -6.830000 13.820000 -52.570000 2.750000 6.580000 -3.800000 -29.160000 -11.520000 -61.230000 58.209999 -12.710000 -38.150002 3.660000 -16.940001 -6.960000 -12.000000 17.439999 -4.040000 10.480000 -179.970001 -38.630001 -172.949997 -175.889999 79.650002 176.229996 2.880000 -5.330000 -45.290001 -66.160004 -68.230003 -96.150002 176.589996 35.240002 -178.770004 0.270000 -28.650000 4.760000 
